<?xml version="1.0" encoding="utf-8"?>
<!-- Generator: Adobe Illustrator 17.0.0, SVG Export Plug-In . SVG Version: 6.00 Build 0)  -->
<!DOCTYPE svg PUBLIC "-//W3C//DTD SVG 1.1//EN" "http://www.w3.org/Graphics/SVG/1.1/DTD/svg11.dtd">
<svg version="1.1" id="Layer_1" xmlns="http://www.w3.org/2000/svg" xmlns:xlink="http://www.w3.org/1999/xlink" x="0px" y="0px"
	 width="30px" height="30px" viewBox="0 0 30 30" enable-background="new 0 0 30 30" xml:space="preserve">
<g>
	<path d="M22.895,18.048c-0.681-3.151-3.134-5.65-6.261-6.396c1.437-1.212,2.352-3.026,2.352-5.049C18.986,2.963,16.024,0,12.383,0
		C8.741,0,5.779,2.963,5.779,6.604c0,2.023,0.915,3.836,2.352,5.049c-3.695,0.882-6.451,4.211-6.451,8.172v6.551h14.935
		c0.912,2.182,3.069,3.719,5.578,3.719c3.332,0,6.043-2.711,6.043-6.043C28.236,20.956,25.898,18.397,22.895,18.048z M22.193,28.31
		c-2.349,0-4.259-1.911-4.259-4.259s1.911-4.259,4.259-4.259s4.259,1.911,4.259,4.259S24.542,28.31,22.193,28.31z"/>
	<path d="M23.085,21.599h-1.784v1.607h-1.607v1.784h1.607v1.607h1.784v-1.607h1.607v-1.784h-1.607V21.599z"/>
</g>
</svg>
