<?xml version="1.0" encoding="utf-8"?>
<!-- Generator: Adobe Illustrator 17.0.0, SVG Export Plug-In . SVG Version: 6.00 Build 0)  -->
<!DOCTYPE svg PUBLIC "-//W3C//DTD SVG 1.1//EN" "http://www.w3.org/Graphics/SVG/1.1/DTD/svg11.dtd">
<svg version="1.1" id="Layer_1" xmlns="http://www.w3.org/2000/svg" xmlns:xlink="http://www.w3.org/1999/xlink" x="0px" y="0px"
	 width="30px" height="30px" viewBox="0 0 30 30" enable-background="new 0 0 30 30" xml:space="preserve">
<g>
	<g>
		<path stroke="#000000" stroke-width="0.5" stroke-miterlimit="10" d="M16.739,15.659c-0.055-0.168-0.199-0.288-0.374-0.315
			l-5.209-0.74L8.812,9.891c-0.079-0.158-0.24-0.257-0.415-0.257l0,0c-0.175,0-0.336,0.099-0.415,0.26L5.669,14.62L0.46,15.395
			c-0.175,0.027-0.319,0.147-0.374,0.315c-0.055,0.168-0.007,0.353,0.12,0.473l3.78,3.664l-0.874,5.189
			c-0.031,0.175,0.041,0.35,0.185,0.452c0.079,0.058,0.175,0.089,0.271,0.089c0.075,0,0.147-0.017,0.216-0.055l4.651-2.464
			l4.664,2.437c0.069,0.034,0.141,0.051,0.212,0.051l0,0c0.254,0,0.463-0.209,0.463-0.463c0-0.038-0.003-0.072-0.014-0.106
			l-0.901-5.158l3.756-3.684C16.749,16.012,16.794,15.827,16.739,15.659z M12.044,19.329c-0.11,0.106-0.158,0.26-0.13,0.411
			l0.785,4.5l-4.051-2.115c-0.134-0.072-0.295-0.069-0.432,0l-4.037,2.139l0.757-4.507c0.024-0.151-0.024-0.302-0.134-0.408
			l-3.276-3.18l4.52-0.672c0.151-0.024,0.281-0.117,0.346-0.254l2.008-4.102l2.036,4.092c0.069,0.137,0.199,0.23,0.35,0.254
			l4.524,0.644L12.044,19.329z"/>
	</g>
	<g>
		<path stroke="#000000" stroke-width="0.5" stroke-miterlimit="10" d="M29.919,15.264c-0.04-0.122-0.144-0.209-0.271-0.229
			l-3.783-0.538l-1.703-3.423c-0.057-0.114-0.174-0.187-0.301-0.187l0,0c-0.127,0-0.244,0.072-0.301,0.189l-1.68,3.432l-3.783,0.563
			c-0.127,0.02-0.231,0.107-0.271,0.229s-0.005,0.256,0.087,0.343l2.745,2.661l-0.635,3.768c-0.022,0.127,0.03,0.254,0.134,0.329
			c0.057,0.042,0.127,0.065,0.197,0.065c0.055,0,0.107-0.012,0.157-0.04l3.378-1.79l3.388,1.77c0.05,0.025,0.102,0.037,0.154,0.037
			l0,0c0.184,0,0.336-0.152,0.336-0.336c0-0.027-0.002-0.052-0.01-0.077l-0.655-3.746l2.728-2.676
			C29.927,15.52,29.959,15.386,29.919,15.264z M26.509,17.93c-0.08,0.077-0.114,0.189-0.095,0.299l0.57,3.268l-2.942-1.536
			c-0.097-0.052-0.214-0.05-0.314,0l-2.932,1.553l0.55-3.273c0.017-0.11-0.017-0.219-0.097-0.296l-2.38-2.31l3.283-0.488
			c0.11-0.017,0.204-0.085,0.251-0.184l1.459-2.979l1.479,2.972c0.05,0.1,0.144,0.167,0.254,0.184l3.286,0.468L26.509,17.93z"/>
	</g>
	<g>
		<path stroke="#000000" stroke-width="0.5" stroke-miterlimit="10" d="M20.59,7.369c-0.027-0.082-0.097-0.141-0.183-0.154
			L17.86,6.853l-1.146-2.304c-0.039-0.077-0.117-0.126-0.203-0.126l0,0c-0.085,0-0.164,0.049-0.203,0.127l-1.131,2.311L12.629,7.24
			c-0.085,0.013-0.156,0.072-0.183,0.154c-0.027,0.082-0.003,0.173,0.059,0.231l1.848,1.792l-0.427,2.537
			c-0.015,0.085,0.02,0.171,0.09,0.221c0.039,0.028,0.085,0.044,0.132,0.044c0.037,0,0.072-0.008,0.106-0.027l2.274-1.205
			l2.281,1.192c0.034,0.017,0.069,0.025,0.104,0.025l0,0c0.124,0,0.226-0.102,0.226-0.226c0-0.018-0.002-0.035-0.007-0.052
			l-0.441-2.522l1.837-1.802C20.595,7.542,20.616,7.451,20.59,7.369z M18.294,9.164c-0.054,0.052-0.077,0.127-0.064,0.201l0.384,2.2
			l-1.981-1.034c-0.065-0.035-0.144-0.034-0.211,0l-1.974,1.046l0.37-2.204c0.012-0.074-0.012-0.147-0.065-0.199L13.15,7.619
			l2.21-0.328c0.074-0.012,0.137-0.057,0.169-0.124l0.982-2.006l0.995,2.001c0.034,0.067,0.097,0.112,0.171,0.124L19.891,7.6
			L18.294,9.164z"/>
	</g>
</g>
</svg>
