<?xml version="1.0" encoding="utf-8"?>
<!-- Generator: Adobe Illustrator 17.0.0, SVG Export Plug-In . SVG Version: 6.00 Build 0)  -->
<!DOCTYPE svg PUBLIC "-//W3C//DTD SVG 1.1//EN" "http://www.w3.org/Graphics/SVG/1.1/DTD/svg11.dtd">
<svg version="1.1" id="Layer_1" xmlns="http://www.w3.org/2000/svg" xmlns:xlink="http://www.w3.org/1999/xlink" x="0px" y="0px"
	 width="30px" height="30px" viewBox="0 0 30 30" enable-background="new 0 0 30 30" xml:space="preserve">
<path stroke="#000000" stroke-miterlimit="10" d="M25.02,28.243l-3.835-8.756c-0.116-0.265-0.425-0.386-0.69-0.27
	c-0.265,0.116-0.386,0.425-0.27,0.69l3.212,7.332c-0.26-0.067-0.529-0.101-0.805-0.101c-0.861,0-1.67,0.335-2.279,0.944
	c-0.411,0.411-0.957,0.637-1.538,0.637c-0.581,0-1.127-0.226-1.538-0.637c-1.256-1.256-3.301-1.256-4.557,0
	c-0.411,0.411-0.957,0.637-1.538,0.637c-0.581,0-1.127-0.226-1.538-0.637c-0.609-0.609-1.418-0.944-2.278-0.944
	c-0.275,0-0.545,0.034-0.805,0.101l5.982-13.659v3.104c0,0.289,0.235,0.524,0.524,0.524s0.524-0.235,0.524-0.524v-3.894h3.515
	l1.324,3.023c0.086,0.196,0.279,0.314,0.48,0.314c0.07,0,0.141-0.014,0.21-0.044c0.265-0.116,0.386-0.425,0.27-0.69l-1.287-2.938
	c1.204-0.89,2.015-2.22,2.249-3.712l0.719-4.594c0.047-0.303-0.04-0.61-0.239-0.842c-0.199-0.233-0.489-0.366-0.796-0.366
	c-0.42,0-0.797,0.249-0.962,0.635c-0.538,1.257-1.435,2.306-2.593,3.033L15,7.54l-1.484-0.931c-1.158-0.727-2.055-1.776-2.593-3.033
	C10.758,3.19,10.38,2.941,9.96,2.941c-0.306,0-0.596,0.133-0.795,0.366C8.966,3.54,8.879,3.847,8.926,4.149l0.719,4.595
	c0.234,1.492,1.045,2.822,2.249,3.712L4.98,28.243c-0.101,0.231-0.024,0.501,0.185,0.643s0.488,0.116,0.666-0.062
	c0.848-0.848,2.227-0.848,3.075,0c0.609,0.608,1.418,0.944,2.279,0.944s1.67-0.335,2.279-0.944c0.411-0.411,0.957-0.637,1.538-0.637
	s1.127,0.226,1.538,0.637c0.608,0.608,1.418,0.944,2.278,0.944c0.861,0,1.67-0.335,2.279-0.944c0.411-0.411,0.957-0.637,1.538-0.637
	s1.127,0.226,1.538,0.637c0.178,0.178,0.458,0.204,0.666,0.062C25.044,28.744,25.122,28.474,25.02,28.243z M10.681,8.582
	L9.959,3.988c0.622,1.455,1.66,2.668,3,3.509l1.697,1.064c0.096,0.081,0.217,0.125,0.34,0.125H15c0.124,0,0.248-0.042,0.345-0.125
	l1.697-1.064c1.34-0.841,2.377-2.054,2.997-3.509l-0.719,4.595c-0.203,1.294-0.937,2.438-2.022,3.162h-4.594
	C11.617,11.019,10.883,9.875,10.681,8.582z"/>
</svg>
