<?xml version="1.0" encoding="utf-8"?>
<!-- Generator: Adobe Illustrator 17.0.0, SVG Export Plug-In . SVG Version: 6.00 Build 0)  -->
<!DOCTYPE svg PUBLIC "-//W3C//DTD SVG 1.1//EN" "http://www.w3.org/Graphics/SVG/1.1/DTD/svg11.dtd">
<svg version="1.1" id="Layer_1" xmlns="http://www.w3.org/2000/svg" xmlns:xlink="http://www.w3.org/1999/xlink" x="0px" y="0px"
	 width="200px" height="100px" viewBox="0 0 200 100" enable-background="new 0 0 200 100" xml:space="preserve">
<g>
	<g>
		<path id="SVGCleanerId_0_1_" fill="#F7981D" d="M81.677,60.689c-7.329,5.497-17.712,8.245-26.873,8.245
			c-12.826,0-24.125-4.581-32.676-12.52c-0.61-0.61,0-1.527,0.61-0.916c9.467,5.497,20.766,8.551,32.676,8.551
			c7.94,0,16.796-1.527,25.041-5.191C81.677,58.246,82.594,59.773,81.677,60.689z"/>
	</g>
	<path fill="#F7981D" d="M84.426,57.024c-0.916-1.222-6.107-0.61-8.551-0.306c-0.61,0-0.916-0.61-0.306-0.916
		c4.275-3.054,10.994-2.138,11.604-1.222c0.916,0.916-0.306,7.94-3.97,10.994c-0.61,0.61-1.222,0.306-0.916-0.306
		C83.51,63.132,85.342,58.246,84.426,57.024z"/>
	<path d="M76.18,35.342v-2.748c0-0.306,0.306-0.61,0.61-0.61h12.826c0.306,0,0.61,0.306,0.61,0.61v2.443
		c0,0.306-0.306,0.916-0.916,1.832l-6.718,9.467c2.443,0,4.886,0.306,7.329,1.527c0.61,0.306,0.61,0.61,0.61,1.222v3.054
		c0,0.306-0.306,0.916-0.916,0.61c-3.97-2.138-9.162-2.138-13.437,0c-0.306,0.306-0.916-0.306-0.916-0.61V49.39
		c0-0.306,0-1.222,0.61-1.832l7.634-10.994h-6.718C76.486,35.953,76.18,35.648,76.18,35.342z"/>
	<path d="M30.068,53.054h-3.97c-0.306,0-0.61-0.306-0.61-0.61v-19.85c0-0.306,0.306-0.61,0.61-0.61h3.665
		c0.306,0,0.61,0.306,0.61,0.61v2.443l0,0c0.916-2.443,2.748-3.665,5.191-3.665s3.97,1.222,4.886,3.665
		c0.916-2.443,3.054-3.665,5.191-3.665c1.527,0,3.359,0.61,4.581,2.138c1.222,1.527,0.916,3.97,0.916,6.107v12.52
		c0,0.306-0.306,0.61-0.61,0.61h-3.97c-0.306,0-0.61-0.306-0.61-0.61V41.755c0-0.916,0-3.054,0-3.665
		c-0.306-1.222-1.222-1.832-2.138-1.832c-0.916,0-1.832,0.61-2.443,1.527c-0.306,0.916-0.306,2.748-0.306,3.665v10.383
		c0,0.306-0.306,0.61-0.61,0.61h-3.97c-0.306,0-0.61-0.306-0.61-0.61V41.45c0-2.138,0.306-5.497-2.443-5.497
		s-2.748,3.054-2.748,5.497v10.383C30.679,52.749,30.374,53.054,30.068,53.054z"/>
	<path d="M101.221,31.372c5.802,0,8.856,4.886,8.856,11.299c0,6.107-3.359,10.994-8.856,10.994s-8.551-4.886-8.551-10.994
		C92.671,36.258,95.725,31.372,101.221,31.372z M101.221,35.342c-2.748,0-3.054,3.97-3.054,6.413c0,2.443,0,7.634,3.054,7.634
		c3.054,0,3.054-4.275,3.054-6.718c0-1.527,0-3.665-0.61-5.191C103.36,35.953,102.443,35.342,101.221,35.342z"/>
	<path d="M117.712,53.054h-3.97c-0.306,0-0.61-0.306-0.61-0.61v-19.85c0-0.306,0.306-0.61,0.61-0.61h3.665
		c0.306,0,0.61,0.306,0.61,0.61v3.054l0,0c1.222-2.748,2.443-3.97,5.191-3.97c1.832,0,3.359,0.61,4.581,2.443
		c0.916,1.527,0.916,4.275,0.916,6.107v12.521c0,0.306-0.306,0.61-0.61,0.61h-3.97c-0.306,0-0.61-0.306-0.61-0.61V42.061
		c0-2.138,0.306-5.191-2.443-5.191c-0.916,0-1.832,0.61-2.138,1.527c-0.61,1.222-0.61,2.443-0.61,3.665V52.75
		C118.323,52.749,118.017,53.054,117.712,53.054z"/>
	<ellipse fill="#F7981D" cx="133.288" cy="51.528" rx="1.832" ry="1.832"/>
	<g>
		<path fill="#F7981D" d="M172.375,53.054c-0.306,0-0.61-0.306-0.61-0.61v-19.85c0-0.306,0.306-0.61,0.61-0.61h1.222
			c0.306,0,0.61,0.306,0.61,0.61v2.748c0.916-2.138,2.748-3.97,5.191-3.97l0,0l0,0c2.443,0,4.275,1.832,5.191,4.581
			c0.916-2.748,3.054-4.581,5.802-4.581l0,0l0,0c1.832,0,3.665,1.222,4.581,3.054c0.916,1.832,0.916,3.97,0.916,6.107v11.91
			c0,0.306-0.306,0.61-0.61,0.61h-1.832c-0.306,0-0.61-0.306-0.61-0.61v-11.91c0-1.527,0-3.054-0.61-4.275
			c-0.61-1.222-1.832-2.138-3.054-2.138c-1.222,0-2.443,0.916-3.359,2.443c-0.916,1.832-0.916,3.359-0.916,5.191v10.688
			c0,0.306-0.306,0.61-0.61,0.61h-1.832c-0.306,0-0.61-0.306-0.61-0.61V39.617c0-1.222,0-2.443-0.61-3.665s-1.832-1.832-3.054-2.138
			c-1.222,0-2.443,0.916-3.054,2.138c-0.916,1.527-1.222,3.054-1.222,4.886v11.299c0,0.306-0.306,0.61-0.61,0.61h-0.916v0.306
			L172.375,53.054L172.375,53.054z"/>
		<path fill="#F7981D" d="M160.771,53.36c-5.497,0-7.94-5.497-7.94-11.299s2.748-10.994,8.551-10.994l0,0l0,0
			c5.497,0,7.94,5.497,7.94,10.994C169.321,48.169,166.573,53.36,160.771,53.36L160.771,53.36L160.771,53.36z M161.076,50.611
			c1.832,0,3.359-1.222,3.97-3.054c0.61-1.527,0.916-3.665,0.916-5.497c0-2.138-0.306-3.97-1.222-5.802
			c-0.916-1.527-2.138-2.443-3.97-2.443c-1.832,0-3.359,1.222-3.97,3.054c-0.61,1.527-0.916,3.665-0.916,5.191
			c0,1.832,0.306,4.275,0.916,5.802C158.022,49.695,159.549,50.611,161.076,50.611z"/>
		<path fill="#F7981D" d="M143.364,50.611c2.443,0,3.665-2.138,4.275-4.581c0-0.306,0.306-0.61,0.61-0.61h1.527
			c0.306,0,0.61,0.306,0.61,0.61c-0.61,4.275-3.359,7.329-7.024,7.329l0,0l0,0c-5.497,0-7.94-5.497-7.94-10.994
			s2.443-10.994,7.94-10.994l0,0l0,0c3.665,0,6.413,3.054,7.024,7.329c0,0.306-0.306,0.61-0.61,0.61h-1.832
			c-0.306,0-0.61-0.306-0.61-0.61c-0.306-2.443-1.832-4.275-4.275-4.581c-3.665,0-4.886,4.581-4.886,8.245
			C138.783,45.725,139.699,50.611,143.364,50.611z"/>
	</g>
	<path d="M73.127,49.39c-0.916-0.916-1.527-1.832-1.527-3.665v-6.107c0-2.748,0-4.886-1.832-6.718
		c-1.527-1.222-3.97-1.833-5.802-1.833c-3.664,0-7.634,1.222-8.551,5.802c0,0.61,0.306,0.916,0.61,0.916l3.665,0.611
		c0.306,0,0.611-0.306,0.611-0.611c0.306-1.832,1.527-2.443,3.054-2.443c0.916,0,1.527,0.306,2.138,0.916
		c0.61,0.611,0.61,1.832,0.61,2.749v0.61c-2.443,0-5.191,0.306-7.329,1.222c-2.138,1.222-3.97,3.359-3.97,6.413
		c0,3.97,2.443,6.107,5.802,6.107c2.749,0,4.275-0.61,6.413-2.748c0.611,0.916,0.916,1.527,2.138,2.443c0.306,0,0.61,0,0.916,0
		c0.611-0.916,2.138-2.138,3.054-2.749C73.432,50.306,73.432,49.695,73.127,49.39z M66.036,43.606c0,1.527,0,2.749-0.61,3.97
		c-0.61,1.222-1.527,1.833-2.749,1.833c-1.527,0-2.443-1.222-2.443-2.749c0-3.359,3.054-3.97,5.802-3.97V43.606z"/>
	<path d="M22.434,49.39c-0.916-0.916-1.527-1.832-1.527-3.665v-6.107c0-2.748,0-4.886-1.832-6.718
		c-1.527-1.222-3.97-1.833-5.802-1.833c-3.664,0-7.634,1.222-8.551,5.802c0,0.61,0.306,0.916,0.61,0.916l3.665,0.611
		c0.306,0,0.61-0.306,0.61-0.611c0.306-1.832,1.527-2.443,3.054-2.443c0.916,0,1.527,0.306,2.138,0.916
		c0.61,0.611,0.61,1.832,0.61,2.749v0.61c-2.443,0-5.191,0.306-7.329,1.222c-2.137,1.222-3.969,3.36-3.969,6.414
		c0,3.97,2.443,6.107,5.802,6.107c2.749,0,4.275-0.61,6.413-2.748c0.61,0.916,0.916,1.527,2.138,2.443c0.306,0,0.61,0,0.916,0
		c0.61-0.916,2.138-2.138,3.054-2.749C22.739,50.306,22.739,49.695,22.434,49.39z M15.007,43.606c0,1.527,0,2.749-0.61,3.97
		c-0.611,1.222-1.527,1.833-2.749,1.833c-1.527,0-2.443-1.222-2.443-2.749c0-3.359,3.054-3.97,5.802-3.97V43.606z"/>
</g>
</svg>
