<?xml version="1.0" encoding="utf-8"?>
<!-- Generator: Adobe Illustrator 17.0.0, SVG Export Plug-In . SVG Version: 6.00 Build 0)  -->
<!DOCTYPE svg PUBLIC "-//W3C//DTD SVG 1.1//EN" "http://www.w3.org/Graphics/SVG/1.1/DTD/svg11.dtd">
<svg version="1.1" id="Layer_1" xmlns="http://www.w3.org/2000/svg" xmlns:xlink="http://www.w3.org/1999/xlink" x="0px" y="0px"
	 width="200px" height="100px" viewBox="0 0 200 100" enable-background="new 0 0 200 100" xml:space="preserve">
<g>
	<path d="M108.962,15.722c0.212,0.362,0.419,0.725,0.635,1.084c1.496,2.483,2.993,4.964,4.49,7.446
		c1.285,2.129,2.57,4.259,3.856,6.387c1.662,2.751,3.326,5.501,4.988,8.252c1.642,2.718,3.283,5.438,4.924,8.156
		c1.31,2.17,2.622,4.339,3.932,6.509c1.296,2.146,2.591,4.291,3.886,6.437c0.141,0.234,0.283,0.467,0.452,0.746
		c-0.15,0-0.243,0-0.335,0c-6.928,0-13.856-0.001-20.784,0.005c-0.219,0-0.339-0.064-0.453-0.254
		c-1.621-2.72-3.251-5.435-4.878-8.151c-1.076-1.797-2.152-3.595-3.228-5.393c-1.164-1.946-2.327-3.892-3.492-5.837
		c-1.13-1.888-2.261-3.775-3.392-5.663c-1.912-3.193-3.823-6.386-5.734-9.579c-0.048-0.08-0.089-0.164-0.145-0.266
		c0.252-0.167,0.489-0.326,0.728-0.48c1.029-0.665,2.059-1.328,3.089-1.992c1.295-0.835,2.591-1.668,3.886-2.504
		c1.134-0.732,2.266-1.467,3.4-2.199c1.295-0.836,2.591-1.668,3.885-2.505c0.084-0.054,0.153-0.132,0.23-0.198
		C108.924,15.722,108.943,15.722,108.962,15.722z"/>
	<path d="M49.619,74.374c0.026-0.045,0.071-0.089,0.075-0.136c0.1-1.166,0.398-2.279,0.911-3.329
		c0.367-0.751,0.831-1.441,1.384-2.07c0.859-0.976,1.878-1.739,3.054-2.292c0.917-0.431,1.877-0.7,2.884-0.817
		c1.145-0.133,2.269-0.042,3.38,0.245c0.734,0.19,1.437,0.465,2.098,0.84c0.08,0.045,0.168,0.076,0.284,0.128
		c0-0.434,0-0.832,0-1.223c0.222-0.068,4.669-0.088,5.053-0.026c0,5.992,0,11.987,0,17.983c-0.195,0.061-4.613,0.081-5.038,0.018
		c0-0.219,0-0.445,0-0.718c-0.107,0.045-0.174,0.067-0.235,0.1c-1.119,0.619-2.312,1.004-3.586,1.129
		c-0.341,0.033-0.684,0.076-1.025,0.066c-1.046-0.031-2.068-0.206-3.055-0.567c-1.017-0.371-1.941-0.903-2.77-1.599
		c-1.087-0.911-1.932-2.005-2.524-3.298c-0.456-0.994-0.719-2.032-0.815-3.117c-0.005-0.058-0.05-0.113-0.076-0.169
		C49.619,75.141,49.619,74.758,49.619,74.374z M54.324,74.948c0.017,2.414,1.842,4.622,4.621,4.649
		c2.53,0.024,4.473-1.909,4.636-4.297c0.191-2.784-1.926-4.792-4.257-4.954C56.556,70.154,54.367,72.266,54.324,74.948z"/>
	<path d="M114.066,83.71c-1.672,0-3.325,0-5.009,0c0-0.244,0-0.469,0-0.746c-2.76,1.517-5.565,1.745-8.435,0.517
		c-1.775-0.759-3.167-1.993-4.192-3.625c-2.125-3.384-1.821-7.794,0.782-10.863c1.457-1.718,3.301-2.802,5.531-3.185
		c2.221-0.382,4.31,0.028,6.268,1.138c0.061-0.231,0.071-5.883,0.013-6.191c-4.822,0-9.648,0-14.514,0
		c-0.002,0.383-0.005,0.762-0.006,1.14c-0.001,0.374,0,0.747,0,1.121c0,0.381,0,0.763,0,1.159c-1.704,0-3.375,0-5.073,0
		c0-1.142,0-2.269,0-3.437c-0.224,0-0.422-0.012-0.618,0.003c-0.224,0.018-0.36-0.053-0.482-0.258
		c-1.839-3.091-3.689-6.177-5.536-9.264c-0.879-1.47-1.759-2.939-2.639-4.408c-1.106-1.846-2.213-3.692-3.319-5.539
		c-0.074-0.123-0.143-0.249-0.232-0.405c5.243-3.07,10.48-6.135,15.734-9.212c0.225,0.366,0.443,0.714,0.655,1.064
		c1.795,2.973,3.588,5.947,5.383,8.921c1.389,2.302,2.779,4.602,4.168,6.904c1.335,2.211,2.669,4.423,4.005,6.634
		c1.064,1.76,2.133,3.517,3.191,5.282c0.114,0.19,0.235,0.258,0.455,0.256c1.179-0.011,2.357-0.005,3.536-0.005
		c0.104,0,0.208,0,0.305,0C114.102,60.937,114.127,83.23,114.066,83.71z M104.325,70.343c-2.476-0.054-4.61,1.996-4.639,4.556
		c-0.029,2.513,1.932,4.697,4.627,4.699c2.597,0.002,4.624-2.01,4.635-4.626C108.959,72.278,106.76,70.302,104.325,70.343z"/>
	<path d="M75.539,47.248c0.1,0.162,0.187,0.298,0.271,0.436c1.598,2.645,3.196,5.291,4.794,7.936
		c0.98,1.622,1.962,3.242,2.935,4.867c0.102,0.17,0.215,0.231,0.412,0.23c1.275-0.008,2.549-0.004,3.824-0.004
		c0.104,0,0.207,0,0.302,0c0.064,0.246,0.073,22.694,0.013,22.998c-1.66,0-3.323,0-5.024,0c-0.011-0.228-0.022-0.46-0.035-0.727
		c-2.432,1.348-4.957,1.673-7.589,0.809c-1.881-0.617-3.414-1.743-4.59-3.338c-2.489-3.379-2.373-7.864,0.069-11.071
		c1.416-1.859,3.273-3.054,5.575-3.522c2.298-0.467,4.462-0.072,6.501,1.067c0.059-0.222,0.078-5.738,0.021-6.189
		c-0.115,0-0.236,0-0.357,0c-6.642,0-13.283-0.003-19.925,0.008c-0.336,0.001-0.525-0.086-0.699-0.386
		c-0.741-1.284-1.514-2.549-2.271-3.814c0.001-0.02,0-0.029,0.003-0.037c0.003-0.009,0.007-0.019,0.014-0.025
		c0.029-0.025,0.056-0.053,0.089-0.072C65.083,53.364,70.294,50.316,75.539,47.248z M78.338,70.343
		c-2.485-0.049-4.554,2.01-4.63,4.449c-0.083,2.646,1.987,4.814,4.624,4.808c2.659-0.006,4.628-2.114,4.634-4.632
		C82.972,72.355,80.836,70.308,78.338,70.343z"/>
	<path d="M128.527,66.955c0-0.456,0-0.856,0-1.272c1.688,0,3.352,0,5.014,0c0.057,0.206,0.072,17.685,0.014,18.027
		c-1.668,0-3.339,0-5.031,0c0-0.237,0-0.455,0-0.73c-0.117,0.056-0.2,0.089-0.277,0.132c-1.013,0.572-2.105,0.913-3.251,1.07
		c-0.508,0.07-1.03,0.119-1.539,0.085c-0.885-0.06-1.76-0.201-2.607-0.497c-0.903-0.315-1.744-0.738-2.509-1.308
		c-1.755-1.307-2.945-3.006-3.515-5.127c-0.172-0.639-0.262-1.288-0.292-1.951c-0.106-2.359,0.592-4.457,2.077-6.276
		c1.444-1.769,3.303-2.877,5.561-3.289c0.537-0.098,1.078-0.159,1.623-0.152c1.607,0.021,3.123,0.396,4.529,1.187
		C128.372,66.881,128.422,66.903,128.527,66.955z M123.813,70.343c-2.494-0.055-4.555,2.02-4.637,4.443
		c-0.087,2.577,1.935,4.823,4.622,4.812c2.573-0.01,4.614-1.953,4.638-4.627C128.46,72.339,126.33,70.322,123.813,70.343z"/>
	<path d="M134.241,78.005c1.993,0,3.964,0,5.943,0c0.018,0.048,0.045,0.09,0.049,0.135c0.092,0.961,0.79,1.441,1.656,1.531
		c0.281,0.029,0.571,0.027,0.852-0.003c0.214-0.023,0.433-0.088,0.626-0.182c0.147-0.072,0.282-0.203,0.378-0.339
		c0.243-0.341,0.187-0.716-0.103-1.009c-0.297-0.3-0.659-0.5-1.042-0.646c-0.813-0.31-1.636-0.592-2.457-0.879
		c-1.067-0.373-2.12-0.776-3.087-1.374c-0.847-0.524-1.6-1.15-2.121-2.017c-0.31-0.515-0.498-1.069-0.57-1.668
		c-0.129-1.079,0.092-2.074,0.691-2.979c0.44-0.664,1.035-1.173,1.692-1.612c0.896-0.598,1.886-0.977,2.937-1.179
		c0.58-0.111,1.172-0.18,1.762-0.208c1.053-0.049,2.103,0.012,3.139,0.224c1.256,0.257,2.415,0.728,3.412,1.551
		c1.071,0.883,1.689,2.006,1.773,3.405c0.009,0.153,0.018,0.305,0.024,0.458c0.002,0.046-0.006,0.093-0.013,0.182
		c-1.945,0.005-3.884,0.001-5.829,0.002c-0.018-0.101-0.03-0.174-0.045-0.247c-0.099-0.5-0.379-0.861-0.861-1.027
		c-0.568-0.195-1.143-0.203-1.706,0.041c-0.018,0.008-0.037,0.012-0.054,0.02c-0.651,0.324-0.7,0.922-0.114,1.35
		c0.564,0.412,1.209,0.655,1.858,0.885c0.938,0.332,1.887,0.634,2.818,0.982c0.934,0.349,1.831,0.777,2.649,1.357
		c0.821,0.583,1.429,1.319,1.717,2.298c0.153,0.521,0.171,1.055,0.161,1.592c-0.02,1.128-0.364,2.14-1.079,3.02
		c-0.611,0.752-1.382,1.29-2.258,1.679c-1.122,0.498-2.308,0.743-3.531,0.801c-0.592,0.028-1.187,0.064-1.778,0.036
		c-1.616-0.077-3.196-0.333-4.64-1.127c-1.005-0.552-1.815-1.304-2.324-2.347c-0.297-0.609-0.446-1.258-0.508-1.931
		C134.236,78.526,134.217,78.273,134.241,78.005z"/>
	<path d="M89.441,65.811c1.688,0,3.353,0,5.015,0c0.058,0.215,0.071,17.503,0.012,17.828c-1.667,0-3.338,0-5.027,0
		C89.441,77.697,89.441,71.771,89.441,65.811z"/>
</g>
</svg>
