<?xml version="1.0" encoding="utf-8"?>
<!-- Generator: Adobe Illustrator 17.0.0, SVG Export Plug-In . SVG Version: 6.00 Build 0)  -->
<!DOCTYPE svg PUBLIC "-//W3C//DTD SVG 1.1//EN" "http://www.w3.org/Graphics/SVG/1.1/DTD/svg11.dtd">
<svg version="1.1" id="Layer_1" xmlns="http://www.w3.org/2000/svg" xmlns:xlink="http://www.w3.org/1999/xlink" x="0px" y="0px"
	 width="200px" height="100px" viewBox="0 0 200 100" enable-background="new 0 0 200 100" xml:space="preserve">
<g>
	<path d="M137.601,67.087c1.005,0.984,2.036,1.969,3.038,2.982c0.799,0.807,0.9,1.932,0.303,2.824
		c-0.801,1.195-2.404,1.358-3.456,0.344c-0.514-0.496-1.014-1.005-1.517-1.512c-0.49-0.495-0.976-0.995-1.49-1.519
		c-3.774,2.425-7.804,3.158-12.088,1.775c-3.106-1.003-5.551-2.937-7.292-5.718c-3.431-5.48-2.409-12.585,2.44-17.012
		c4.867-4.443,12.064-4.776,17.252-0.811C140.312,52.659,141.912,60.785,137.601,67.087z M126.832,49.371
		c-5.525-0.012-10.04,4.406-10.057,9.84c-0.016,5.31,4.461,9.715,9.879,9.72c5.377,0.005,9.706-4.345,9.73-9.778
		C136.407,53.793,132.1,49.382,126.832,49.371z"/>
	<path d="M58.799,58.745c-0.019-1.889,0.192-3.744,0.785-5.545c1.053-3.198,3.118-5.476,6.309-6.569
		c4.009-1.374,8.055-1.358,12.046,0.137c1.43,0.536,2.672,1.392,3.685,2.559c0.908,1.046,0.999,2.011,0.235,2.832
		c-0.802,0.861-2.205,0.954-3.172,0.193c-0.365-0.287-0.693-0.62-1.05-0.917c-1.87-1.558-4.073-2.039-6.429-1.866
		c-1.014,0.074-2.053,0.248-3.011,0.58c-1.951,0.676-3.191,2.136-3.773,4.084c-0.891,2.98-0.889,5.996-0.043,8.987
		c0.656,2.319,2.195,3.787,4.553,4.331c1.952,0.45,3.921,0.445,5.877,0.017c1.431-0.313,2.63-1.073,3.698-2.057
		c0.629-0.58,1.317-1.009,2.23-0.891c0.842,0.109,1.471,0.518,1.796,1.307c0.313,0.761,0.082,1.421-0.464,2.005
		c-1.486,1.588-3.341,2.559-5.402,3.13c-3.611,1-7.229,0.967-10.785-0.238c-3.692-1.251-5.821-3.94-6.624-7.683
		c-0.308-1.436-0.398-2.918-0.587-4.379C58.717,58.755,58.758,58.75,58.799,58.745z"/>
	<path d="M89.155,67.609c0.259,0,0.454,0,0.649,0c2.738,0,5.477-0.006,8.215,0.005c0.895,0.004,1.602,0.492,1.889,1.285
		c0.303,0.837,0.166,1.608-0.456,2.257c-0.455,0.476-1.052,0.588-1.688,0.586c-2.423-0.006-4.846-0.002-7.269-0.002
		c-1.129,0-2.257,0.008-3.386-0.002c-1.433-0.013-2.262-0.839-2.262-2.264c-0.004-7.153-0.003-14.307,0-21.46
		c0.001-1.345,0.922-2.348,2.125-2.34c1.276,0.009,2.179,0.959,2.18,2.335c0.006,6.307,0.003,12.614,0.003,18.921
		C89.155,67.126,89.155,67.324,89.155,67.609z"/>
	<path d="M103.125,31.315c-0.637,1.829-1.245,3.575-1.853,5.322c-0.251,0.72-0.489,1.445-0.764,2.156
		c-0.056,0.145-0.249,0.337-0.381,0.339c-1.559,0.024-3.118,0.015-4.751,0.015c0.164-0.442,0.306-0.838,0.458-1.23
		c1.46-3.772,2.925-7.541,4.375-11.316c0.136-0.354,0.292-0.513,0.707-0.505c1.526,0.031,3.054,0.019,4.581,0.007
		c0.268-0.002,0.417,0.064,0.52,0.33c1.591,4.147,3.191,8.291,4.788,12.435c0.023,0.06,0.031,0.125,0.056,0.229
		c-0.072,0.018-0.128,0.045-0.185,0.045c-1.494,0.003-2.988-0.006-4.481,0.014c-0.325,0.004-0.373-0.188-0.451-0.41
		c-0.822-2.364-1.647-4.727-2.472-7.09C103.241,31.567,103.198,31.483,103.125,31.315z"/>
	<path d="M77.592,31.269c-0.333,0.959-0.631,1.815-0.928,2.671c-0.554,1.597-1.118,3.19-1.652,4.794
		c-0.109,0.327-0.258,0.427-0.597,0.422c-1.492-0.019-2.984-0.008-4.557-0.008c0.064-0.196,0.106-0.344,0.161-0.487
		c1.557-4.035,3.119-8.068,4.669-12.106c0.123-0.32,0.267-0.462,0.637-0.457c1.543,0.024,3.086,0.016,4.63,0.005
		c0.265-0.002,0.415,0.057,0.519,0.33c1.587,4.147,3.186,8.289,4.781,12.433c0.028,0.073,0.039,0.153,0.066,0.266
		c-1.591,0-3.149,0.01-4.707-0.017c-0.136-0.002-0.336-0.224-0.393-0.384c-0.797-2.231-1.575-4.47-2.358-6.707
		C77.788,31.81,77.709,31.595,77.592,31.269z"/>
	<path d="M62.348,39.112c0-3.067,0-6.098,0-9.196c-1.189,0-2.339,0-3.522,0c0-1.285,0-2.504,0-3.766c4.005,0,8.006,0,12.026,0
		c0,1.245,0,2.466,0,3.741c-1.175,0-2.328,0-3.53,0c0,3.098,0,6.141,0,9.221C65.656,39.112,64.039,39.112,62.348,39.112z"/>
	<path d="M92.86,39.127c-1.694,0-3.297,0-4.955,0c0-3.064,0-6.106,0-9.208c-1.206,0-2.358,0-3.541,0c0-1.279,0-2.5,0-3.765
		c3.995,0,7.995,0,12.02,0c0,1.237,0,2.457,0,3.734c-1.167,0-2.319,0-3.523,0C92.86,32.987,92.86,36.031,92.86,39.127z"/>
	<path d="M108.743,61.992c0,2.423-0.004,4.846,0.002,7.269c0.002,0.673-0.155,1.288-0.628,1.782
		c-0.572,0.597-1.276,0.834-2.085,0.616c-0.867-0.234-1.367-0.842-1.563-1.7c-0.058-0.256-0.067-0.527-0.067-0.791
		c-0.004-4.813,0.001-9.626-0.005-14.438c-0.001-1.026,0.325-1.878,1.29-2.337c1.483-0.705,3.038,0.382,3.051,2.131
		C108.756,57.013,108.743,59.503,108.743,61.992z"/>
	<path fill="#ED1C24" d="M104.997,43.582c0.723,0,1.336,0.253,1.842,0.756c1.081,1.076,2.162,2.151,3.235,3.235
		c0.786,0.794,1.004,1.751,0.65,2.793c-0.358,1.055-1.152,1.64-2.254,1.764c-0.741,0.083-1.438-0.108-1.976-0.63
		c-1.201-1.166-2.403-2.335-3.538-3.563c-0.752-0.814-0.856-1.814-0.381-2.826C103.053,44.096,103.906,43.638,104.997,43.582z"/>
</g>
</svg>
