<?xml version="1.0" encoding="utf-8"?>
<!-- Generator: Adobe Illustrator 17.0.0, SVG Export Plug-In . SVG Version: 6.00 Build 0)  -->
<!DOCTYPE svg PUBLIC "-//W3C//DTD SVG 1.1//EN" "http://www.w3.org/Graphics/SVG/1.1/DTD/svg11.dtd">
<svg version="1.1" id="Layer_1" xmlns="http://www.w3.org/2000/svg" xmlns:xlink="http://www.w3.org/1999/xlink" x="0px" y="0px"
	 width="200px" height="100px" viewBox="0 0 200 100" enable-background="new 0 0 200 100" xml:space="preserve">
<g>
	<path d="M136.788,51.487c-1.465,0.261-2.845,0.526-4.232,0.741c-0.445,0.069-0.643,0.258-0.76,0.683
		c-0.766,2.796-1.548,5.588-2.342,8.377c-0.415,1.459-0.878,2.904-1.29,4.364c-0.178,0.629-0.575,0.986-1.176,1.156
		c-0.128,0.036-0.26,0.065-0.392,0.08c-2.456,0.278-3.321-0.709-2.638-3.081c0.932-3.237,1.907-6.461,2.863-9.692
		c0.068-0.228,0.127-0.459,0.221-0.802c-0.978,0.196-1.871,0.358-2.751,0.569c-0.129,0.031-0.266,0.284-0.292,0.451
		c-0.469,3.02-0.921,6.044-1.378,9.066c-0.033,0.22-0.067,0.441-0.116,0.658c-0.454,2.005-1.651,2.899-3.718,2.781
		c-1.465-0.084-1.83-0.407-1.966-1.883c-0.19-2.057,0.29-4.038,0.776-6.012c0.314-1.276,0.651-2.546,1.011-3.949
		c-0.945,0.181-1.786,0.347-2.629,0.503c-2.15,0.397-4.298,0.805-6.453,1.173c-0.424,0.072-0.662,0.245-0.859,0.616
		c-1.371,2.582-2.762,5.154-4.147,7.729c-0.137,0.256-0.286,0.505-0.413,0.766c-0.914,1.885-2.645,1.924-4.509,1.389
		c-0.694-0.199-0.9-0.889-1.099-1.509c-0.852-2.655-1.692-5.314-2.543-7.97c-0.68-2.124-1.368-4.246-2.056-6.368
		c-0.079-0.244-0.181-0.481-0.319-0.841c-0.202,0.343-0.37,0.575-0.485,0.832c-1.815,4.026-3.624,8.054-5.432,12.084
		c-0.146,0.326-0.274,0.659-0.409,0.99c-0.925,2.267-2.574,2.96-5.335,2.476c-0.468-0.082-0.771-0.437-0.711-0.916
		c0.071-0.567,0.169-1.158,0.399-1.674c3.667-8.225,7.67-16.272,12.675-23.784c1.386-2.08,2.783-4.155,4.236-6.188
		c1.028-1.438,2.521-1.937,4.244-1.721c1.374,0.173,1.743,1.021,0.981,2.158c-1.777,2.652-3.555,5.304-5.331,7.957
		c-0.108,0.161-0.201,0.332-0.229,0.599c0.217-0.127,0.447-0.237,0.649-0.385c3.547-2.598,7.076-5.22,10.643-7.791
		c1.115-0.804,2.278-1.577,3.512-2.172c1.15-0.555,2.346-0.455,3.327,0.551c0.666,0.683,0.723,1.173,0.052,1.833
		c-0.474,0.466-1.018,0.866-1.558,1.258c-4.194,3.042-8.452,5.985-12.945,8.58c-1.117,0.645-2.153,1.436-3.203,2.192
		c-0.75,0.54-0.846,0.891-0.58,1.793c0.132,0.449,0.277,0.897,0.459,1.327c1.141,2.691,2.294,5.377,3.445,8.063
		c0.113,0.264,0.246,0.519,0.424,0.892c0.239-0.314,0.427-0.544,0.598-0.786c3.367-4.756,6.67-9.558,10.117-14.255
		c2.548-3.472,5.302-6.793,7.927-10.21c1.038-1.352,2.356-1.665,3.923-1.318c1.163,0.258,1.713,1.013,1.567,2.19
		c-0.572,4.629-1.159,9.255-1.738,13.883c-0.041,0.326-0.066,0.654-0.108,1.073c1.254-0.283,2.426-0.529,3.584-0.829
		c0.181-0.047,0.348-0.317,0.438-0.521c1.899-4.332,3.811-8.659,5.664-13.011c0.841-1.974,2.349-2.839,4.393-2.926
		c1.226-0.053,2.007,0.495,2.182,1.708c0.226,1.565,0.324,3.151,0.407,4.732c0.096,1.828,0.114,3.66,0.171,5.489
		c0.019,0.599,0.054,1.198,0.087,1.905c0.726-0.129,1.395-0.239,2.061-0.367c2.3-0.443,4.599-0.892,6.898-1.338
		c0.088-0.017,0.176-0.032,0.264-0.042c2.069-0.241,2.947,0.636,2.699,2.698c-0.107,0.896-0.444,1.258-1.34,1.407
		c-3.015,0.505-6.031,1.004-9.046,1.508c-0.439,0.073-0.875,0.16-1.428,0.263c0.086,1.526,0.119,3.038,0.266,4.54
		c0.265,2.709,0.604,5.412,0.898,8.118c0.043,0.396,0.037,0.805-0.003,1.201c-0.151,1.466-0.806,2.093-2.272,2.216
		c-0.511,0.043-1.021,0.111-1.534,0.131c-0.921,0.036-1.284-0.193-1.437-1.117c-0.236-1.429-0.466-2.869-0.534-4.312
		c-0.147-3.144-0.19-6.292-0.278-9.439C136.829,51.875,136.808,51.722,136.788,51.487z M121.295,39.572
		c-0.075-0.042-0.149-0.083-0.224-0.125c-3.16,4.407-6.321,8.814-9.481,13.222c0.054,0.052,0.109,0.104,0.163,0.155
		c0.171-0.021,0.345-0.03,0.513-0.067c2.091-0.461,4.178-0.945,6.275-1.378c0.481-0.099,0.653-0.309,0.734-0.772
		c0.414-2.351,0.863-4.696,1.296-7.044C120.817,42.235,121.054,40.903,121.295,39.572z M132.999,48.222
		c1.202-0.227,2.267-0.454,3.341-0.621c0.484-0.075,0.617-0.29,0.598-0.754c-0.079-1.985-0.137-3.972-0.187-5.958
		c-0.021-0.834-0.003-1.669-0.003-2.504c-0.072-0.008-0.144-0.017-0.215-0.025C135.372,41.599,134.212,44.838,132.999,48.222z"/>
	<path d="M59.687,47.202c-1,2.332-2.023,4.656-2.996,6.999c-1.386,3.336-2.723,6.694-4.115,10.028
		c-0.28,0.67-0.649,1.327-1.093,1.899c-1.07,1.38-2.544,1.529-4.119,1.14c-0.743-0.183-1.064-0.707-0.905-1.474
		c0.117-0.562,0.295-1.125,0.535-1.647c4.316-9.382,8.357-18.893,13.156-28.047c0.238-0.453,0.495-0.902,0.794-1.316
		c0.928-1.29,1.794-1.563,3.32-1.112c0.515,0.152,0.841,0.507,0.848,1.004c0.02,1.531,0.032,3.067-0.06,4.595
		c-0.216,3.606-0.495,7.208-0.744,10.813c-0.013,0.193,0.018,0.389,0.14,0.633c0.178-0.313,0.371-0.619,0.533-0.941
		c2.431-4.845,4.857-9.693,7.285-14.539c0.12-0.239,0.254-0.472,0.369-0.713c0.882-1.856,1.82-2.057,4.055-1.766
		c0.816,0.106,1.031,0.705,0.631,1.524c-0.746,1.523-1.494,3.045-2.278,4.548c-4.191,8.036-8.105,16.199-11.298,24.692
		c-0.314,0.834-0.678,1.653-1.078,2.449c-0.636,1.262-2.763,1.703-3.813,0.742c-0.306-0.28-0.494-0.874-0.466-1.307
		c0.222-3.407,0.504-6.81,0.778-10.214c0.199-2.469,0.414-4.937,0.618-7.405c0.016-0.193,0.002-0.388,0.002-0.583
		C59.753,47.202,59.72,47.202,59.687,47.202z"/>
	<path d="M79.446,49.68c-0.89,0-1.79,0.083-2.669-0.017c-1.827-0.209-2.719-1.325-2.457-3.14c0.158-1.094,0.372-2.234,0.844-3.217
		c1.533-3.195,3.169-6.342,4.826-9.476c0.575-1.087,2.467-1.356,3.447-0.604c0.501,0.384,0.635,0.949,0.321,1.624
		c-0.902,1.942-1.84,3.868-2.729,5.816c-0.378,0.829-0.758,1.675-0.978,2.553c-0.346,1.381,0.461,2.228,1.847,1.898
		c0.676-0.161,1.347-0.585,1.875-1.053c0.539-0.478,0.935-1.134,1.331-1.753c1.699-2.649,3.383-5.309,5.057-7.973
		c0.936-1.489,2.093-1.876,3.646-1.177c0.69,0.31,0.96,0.776,0.753,1.507c-0.151,0.531-0.368,1.06-0.651,1.533
		c-2.19,3.657-4.388,7.31-6.612,10.946c-3.488,5.7-6.58,11.607-9.345,17.689c-0.892,1.962-1.879,2.524-4.021,2.319
		c-1.326-0.127-1.751-0.755-1.298-1.991c0.183-0.499,0.432-0.981,0.702-1.441c2.177-3.717,4.371-7.424,6.547-11.141
		c0.337-0.576,0.66-1.169,0.906-1.787c0.358-0.899,0.081-1.26-0.875-1.248c-0.156,0.002-0.312,0.02-0.468,0.031
		C79.445,49.61,79.445,49.645,79.446,49.68z"/>
</g>
</svg>
