<?xml version="1.0" encoding="utf-8"?>
<!-- Generator: Adobe Illustrator 17.0.0, SVG Export Plug-In . SVG Version: 6.00 Build 0)  -->
<!DOCTYPE svg PUBLIC "-//W3C//DTD SVG 1.1//EN" "http://www.w3.org/Graphics/SVG/1.1/DTD/svg11.dtd">
<svg version="1.1" id="Layer_1" xmlns="http://www.w3.org/2000/svg" xmlns:xlink="http://www.w3.org/1999/xlink" x="0px" y="0px"
	 width="200px" height="100px" viewBox="0 0 200 100" enable-background="new 0 0 200 100" xml:space="preserve">
<g>
	<path d="M141.138,37.299L141.138,37.299c0.066,0.066,0.133,0.132,0.198,0.198c4.421,4.091,8.841,8.182,13.263,12.273
		c0-3.893,0-7.852,0-11.745c1.715,0,3.43,0,5.146,0c0,8.247,0,16.429,0,24.677c-4.486-4.157-8.973-8.38-13.526-12.537
		c0,3.894,0,7.786,0,11.679c-1.716,0-3.366,0-5.081,0C141.138,53.727,141.138,45.48,141.138,37.299L141.138,37.299z"/>
	<path d="M42.037,41.126c1.386-2.046,3.827-3.167,6.202-3.431c3.629-0.33,7.588,0.264,10.425,2.771
		c-1.188,1.122-2.441,2.177-3.629,3.299c-1.319-1.188-3.101-1.781-4.882-1.781c-1.32-0.066-2.705,0.396-3.431,1.517
		c-0.528,0.792-0.33,1.979,0.396,2.574c1.187,0.99,2.705,1.451,4.156,1.979c2.111,0.66,4.223,1.386,5.938,2.837
		c2.375,1.914,2.903,5.806,1.056,8.247c-1.583,2.112-4.156,3.233-6.73,3.431c-2.309,0.066-4.619,0-6.796-0.791
		c-1.649-0.528-3.101-1.452-4.486-2.442c1.187-1.121,2.441-2.243,3.629-3.364c2.045,1.584,4.685,2.441,7.258,2.111
		c1.121-0.197,2.309-0.792,2.705-1.913c0.264-0.989-0.33-1.979-1.188-2.441c-2.639-1.518-5.74-1.847-8.314-3.497
		c-1.386-0.858-2.573-2.177-3.035-3.76C40.783,44.623,40.981,42.643,42.037,41.126L42.037,41.126z"/>
	<path d="M68.165,38.091c1.715,0,3.431,0,5.146,0c0,3.167,0,6.268,0,9.435c3.498,0,6.928,0,10.425,0c0-3.167,0-6.268,0-9.435
		c1.716,0,3.497,0,5.213,0c0,7.984,0,15.901,0,23.884c-1.716,0-3.497,0-5.213,0c0-3.496,0-7.06,0-10.556c-3.497,0-6.927,0-10.425,0
		c0,3.496,0,7.06,0,10.556c-1.715,0-3.431,0-5.146,0C68.165,54.058,68.165,46.074,68.165,38.091L68.165,38.091z"/>
	<path d="M99.043,38.091c5.872,0,11.679,0,17.551,0c0,1.254,0,2.573,0,3.826c-4.156,0-8.313,0-12.47,0c0,1.914,0,3.761,0,5.674
		c4.09,0,8.182,0,12.272,0c0,1.254,0,2.507,0,3.761c-4.09,0-8.182,0-12.272,0c0,2.178,0,4.355,0,6.532c4.156,0,8.313,0,12.47,0
		c0,1.385,0,2.704,0,4.09c-5.872,0-11.679,0-17.551,0C99.043,54.058,99.043,46.074,99.043,38.091L99.043,38.091z"/>
	<path d="M125.764,38.091c1.715,0,3.431,0,5.147,0c0,7.984,0,15.901,0,23.884c-1.716,0-3.431,0-5.147,0
		C125.764,54.058,125.764,46.074,125.764,38.091L125.764,38.091z"/>
</g>
</svg>
