<?xml version="1.0" encoding="utf-8"?>
<!-- Generator: Adobe Illustrator 17.0.0, SVG Export Plug-In . SVG Version: 6.00 Build 0)  -->
<!DOCTYPE svg PUBLIC "-//W3C//DTD SVG 1.1//EN" "http://www.w3.org/Graphics/SVG/1.1/DTD/svg11.dtd">
<svg version="1.1" id="Layer_1" xmlns="http://www.w3.org/2000/svg" xmlns:xlink="http://www.w3.org/1999/xlink" x="0px" y="0px"
	 width="200px" height="100px" viewBox="0 0 200 100" enable-background="new 0 0 200 100" xml:space="preserve">
<g>
	<path d="M121.038,77.085c0-17.839,0-35.8,0-53.923c11.05-2.84,17.678-0.221,19.182,10.561c1.482,10.626,1.461,21.823-0.167,32.421
		C138.368,77.108,133.502,79.091,121.038,77.085z M132.032,24.679c-0.674,0.059-1.349,0.118-2.023,0.177c0,16.783,0,33.566,0,50.35
		c0.674-0.009,1.349-0.018,2.023-0.027C132.032,58.345,132.032,41.512,132.032,24.679z"/>
	<path d="M107.477,22.292c0,15.518-0.002,30.198,0.002,44.878c0.001,2.035,0.499,4.221-0.093,6.062
		c-0.561,1.745-2.251,3.128-3.444,4.671c-1.167-1.354-3.081-2.562-3.379-4.085c-1.706-8.719-2.99-17.519-4.509-26.276
		c-0.334-1.924-1.034-3.785-1.746-6.319c0,12.456,0,24.169,0,36.345c-0.967,0.07-2.37,0.173-3.715,0.271c0-18.5,0-36.623,0-55.175
		c2.63,0,5.314,0,8.936,0c1.564,8.186,3.189,16.684,4.813,25.182c0.225-0.07,0.451-0.14,0.676-0.21
		c0-8.384-0.009-16.768,0.121-25.15C105.141,22.394,106.966,22.332,107.477,22.292z"/>
	<path d="M77.835,77.58c-3.037,0-5.731,0-8.361,0c-2.413-3.266,2.75-11.768-6.845-10.229c-0.62,3.686-1.157,6.884-1.695,10.082
		c-0.746-0.125-1.493-0.25-2.239-0.376c2.278-16.199,4.47-32.411,6.941-48.581c0.319-2.09,2.078-3.961,3.17-5.933
		c1.185,2.181,3.139,4.265,3.432,6.56C74.262,44.917,75.939,60.774,77.835,77.58z M66.805,47.745c-0.7,0.065-1.4,0.129-2.099,0.194
		c1.249,5.495-3.882,11.523-0.109,16.808c1.039-0.076,2.077-0.152,3.116-0.229C67.41,58.927,67.107,53.336,66.805,47.745z"/>
</g>
</svg>
