<?xml version="1.0" encoding="utf-8"?>
<!-- Generator: Adobe Illustrator 17.0.0, SVG Export Plug-In . SVG Version: 6.00 Build 0)  -->
<!DOCTYPE svg PUBLIC "-//W3C//DTD SVG 1.1//EN" "http://www.w3.org/Graphics/SVG/1.1/DTD/svg11.dtd">
<svg version="1.1" id="Layer_1" xmlns="http://www.w3.org/2000/svg" xmlns:xlink="http://www.w3.org/1999/xlink" x="0px" y="0px"
	 width="200px" height="100px" viewBox="0 0 200 100" enable-background="new 0 0 200 100" xml:space="preserve">
<g>
	<path fill="#4F5B64" d="M121.029,50.379c-0.348-7.37,5.509-13.852,12.861-14.593c7.847-0.791,15.143,5.158,15.668,13.353
		c0.501,7.829-5.527,14.829-13.756,15.137C127.608,64.582,121.162,58.06,121.029,50.379z M144.783,50.125
		c-0.01-5.356-4.249-9.689-9.521-9.617c-5.502,0.075-9.419,4.414-9.456,9.199c-0.044,5.608,4.184,9.875,9.624,9.782
		C140.953,59.395,144.731,54.94,144.783,50.125z"/>
	<path fill="#4F5B64" d="M64.349,36.532c4.712,9.161,9.369,18.216,14.071,27.359c-0.751,0.058-1.424,0.118-2.097,0.161
		c-0.841,0.054-1.687,0.064-2.524,0.155c-0.482,0.052-0.671-0.142-0.836-0.554c-0.505-1.261-1.061-2.501-1.573-3.759
		c-0.128-0.315-0.295-0.431-0.636-0.431c-4.104-0.007-8.208-0.022-12.312-0.053c-0.411-0.003-0.604,0.15-0.763,0.518
		c-0.537,1.248-1.104,2.483-1.683,3.713c-0.083,0.177-0.296,0.421-0.446,0.419c-1.663-0.016-3.326-0.074-5.137-0.125
		c0.125-0.398,0.18-0.73,0.327-1.015c4.241-8.239,8.492-16.474,12.741-24.71C63.752,37.684,64.024,37.16,64.349,36.532z
		 M60.496,54.74c2.761,0,5.368,0,8.117,0c-1.507-2.885-2.963-5.673-4.492-8.601C62.878,49.087,61.705,51.872,60.496,54.74z"/>
	<path fill="#4F5B64" d="M98.195,35.874c0.048,0.798,0.126,1.579,0.136,2.361c0.051,3.911,0.147,7.823,0.101,11.733
		c-0.026,2.217-0.147,4.453-0.485,6.641c-0.586,3.803-3.039,6.099-6.592,7.204c-3.076,0.957-5.896,0.229-8.417-1.739
		c-0.233-0.182-0.382-0.334-0.184-0.656c0.632-1.026,1.239-2.069,1.889-3.161c1.094,0.731,2.345,0.904,3.593,1.011
		c2.748,0.235,4.852-1.452,5.326-4.216c0.077-0.45,0.115-0.913,0.115-1.369c0.004-5.676-0.004-11.352-0.005-17.028
		c0-0.778,0.011-0.779,0.793-0.78C95.689,35.873,96.914,35.874,98.195,35.874z"/>
	<path fill="#4F5B64" d="M112.616,64.27c-1.444,0-2.835,0-4.268,0c0-9.47,0-18.927,0-28.474c0.556,0,1.104,0,1.652,0
		c0.728,0,1.457,0.013,2.185-0.004c0.347-0.008,0.499,0.119,0.47,0.466c-0.011,0.133,0,0.268,0,0.402c0,8.932,0,17.865-0.002,26.797
		C112.654,63.719,112.63,63.981,112.616,64.27z"/>
</g>
</svg>
