<?xml version="1.0" encoding="utf-8"?>
<!-- Generator: Adobe Illustrator 17.0.0, SVG Export Plug-In . SVG Version: 6.00 Build 0)  -->
<!DOCTYPE svg PUBLIC "-//W3C//DTD SVG 1.1//EN" "http://www.w3.org/Graphics/SVG/1.1/DTD/svg11.dtd">
<svg version="1.1" id="Layer_1" xmlns="http://www.w3.org/2000/svg" xmlns:xlink="http://www.w3.org/1999/xlink" x="0px" y="0px"
	 width="200px" height="100px" viewBox="0 0 200 100" enable-background="new 0 0 200 100" xml:space="preserve">
<g>
	<path d="M43.93,60.265c-6.038,0.039-10.521-4.308-10.549-10.23c-0.028-5.935,4.405-10.327,10.445-10.348
		c5.937-0.021,10.399,4.319,10.436,10.151C54.3,55.845,49.959,60.226,43.93,60.265z M36.652,50.056
		c0.04,4.319,3.145,7.502,7.258,7.442c4.129-0.061,7.165-3.304,7.114-7.599c-0.051-4.321-3.127-7.464-7.271-7.428
		C39.628,42.507,36.612,45.727,36.652,50.056z"/>
	<path d="M152.255,60.265c-6.035-0.037-10.405-4.433-10.349-10.414c0.054-5.864,4.482-10.179,10.427-10.164
		c6.036,0.015,10.472,4.397,10.463,10.336C162.787,55.922,158.279,60.302,152.255,60.265z M159.512,49.906
		c-0.036-4.337-3.1-7.482-7.246-7.435c-4.127,0.047-7.172,3.29-7.114,7.577c0.059,4.332,3.138,7.494,7.256,7.453
		C156.542,57.459,159.548,54.246,159.512,49.906z"/>
	<path d="M186.194,39.467c0,7.129,0,13.717,0,20.455c-0.89,0-1.714,0-2.776,0c0-4.101,0-8.258,0-12.415
		c-0.142-0.058-0.283-0.116-0.425-0.173c-2.194,2.578-4.387,5.157-6.721,7.9c-2.258-2.671-4.432-5.244-6.893-8.155
		c0,4.467,0,8.586,0,12.848c-1.087,0-1.916,0-2.915,0c0-6.583,0-13.248,0-20.342c3.411,3.881,6.589,7.497,9.883,11.245
		C179.598,47.079,182.726,43.469,186.194,39.467z"/>
	<path d="M67.272,60.263c-5.997,0-10.495-4.431-10.48-10.325c0.014-5.801,4.478-10.209,10.381-10.251
		c5.978-0.043,10.546,4.376,10.59,10.245C77.807,55.771,73.245,60.263,67.272,60.263z M67.23,42.47
		c-4.163,0.025-7.156,3.186-7.143,7.545c0.013,4.318,3.116,7.536,7.219,7.487c4.133-0.05,7.19-3.269,7.18-7.563
		C74.477,45.675,71.34,42.446,67.23,42.47z"/>
	<path d="M139.556,43.631c-0.681,0.481-1.37,0.966-2.038,1.438c-5.041-3.383-8.75-3.357-11.419,0.039
		c-2.362,3.005-2.024,7.921,0.722,10.493c3.038,2.846,7.036,2.52,10.986-0.968c0.733,0.473,1.493,0.964,2.252,1.455
		c-2.278,3.616-7.01,5.116-11.654,3.768c-4.33-1.258-7.173-5.178-7.17-9.887c0.003-4.689,2.854-8.577,7.222-9.848
		C132.906,38.827,137.332,40.178,139.556,43.631z"/>
	<path d="M96.986,56.082c0.947-0.457,1.709-0.825,2.471-1.193c-0.046,0.169-0.092,0.339-0.138,0.508
		c1.562,0.707,3.065,1.687,4.704,2.042c1.517,0.329,3.201-0.128,3.729-1.959c0.534-1.853-0.652-2.852-2.166-3.574
		c-1.501-0.716-3.037-1.374-4.477-2.198c-2.461-1.407-3.441-3.734-2.783-6.267c0.583-2.246,2.592-3.656,5.365-3.74
		c2.543-0.078,4.735,0.571,6.139,3.062c-0.734,0.525-1.419,1.014-2.104,1.504c0.024-0.171,0.049-0.342,0.073-0.512
		c-1.39-0.441-2.769-1.155-4.175-1.212c-0.747-0.03-1.999,0.963-2.185,1.705c-0.189,0.752,0.412,2.111,1.096,2.59
		c1.497,1.046,3.288,1.659,4.918,2.526c2.95,1.571,4.075,3.89,3.401,6.846c-0.563,2.472-2.87,3.953-6.132,4.064
		C101.42,60.384,98.849,59.202,96.986,56.082z"/>
	<path d="M78.406,40.139c2.493-0.75,3.588,0.131,4.362,2.262c1.315,3.621,2.984,7.113,4.672,11.048
		c1.45-3.465,2.75-6.568,4.047-9.671c0.214-0.511,0.41-1.03,0.627-1.54c1.041-2.446,1.043-2.445,4.085-2.197
		c-2.901,6.772-5.76,13.446-8.779,20.493C84.313,53.505,81.373,46.852,78.406,40.139z"/>
	<path d="M30.859,60.298c-4.42-3.383-8.659-6.627-13.056-9.993c4.403-3.471,8.644-6.815,12.932-10.195
		c0.786,2.915,0.606,3.388-1.631,5.064c-2.212,1.657-4.394,3.355-6.75,5.158c2.264,1.678,4.361,3.272,6.5,4.807
		C31.298,56.893,31.322,56.89,30.859,60.298z"/>
	<path d="M16.663,60.004c-1.017,0-1.861,0-2.857,0c0-6.678,0-13.288,0-19.994c0.967,0,1.859,0,2.857,0
		C16.663,46.674,16.663,53.247,16.663,60.004z"/>
	<path d="M117.607,60.292c-1.954-0.042-2.75-0.661-2.771-2.02c-0.019-1.277,0.789-1.976,1.953-2.018
		c1.269-0.047,2.265,0.723,2.099,2.011C118.782,59.082,117.934,59.805,117.607,60.292z"/>
</g>
</svg>
