<?xml version="1.0" encoding="utf-8"?>
<!-- Generator: Adobe Illustrator 17.0.0, SVG Export Plug-In . SVG Version: 6.00 Build 0)  -->
<!DOCTYPE svg PUBLIC "-//W3C//DTD SVG 1.1//EN" "http://www.w3.org/Graphics/SVG/1.1/DTD/svg11.dtd">
<svg version="1.1" id="Layer_1" xmlns="http://www.w3.org/2000/svg" xmlns:xlink="http://www.w3.org/1999/xlink" x="0px" y="0px"
	 width="50px" height="50px" viewBox="0 0 50 50" enable-background="new 0 0 50 50" xml:space="preserve">
<path fill="#FFFFFF" d="M42.509,7.491C37.832,2.814,31.614,0.238,25,0.238c-6.614,0-12.832,2.576-17.509,7.252
	S0.238,18.386,0.238,25c0,6.614,2.576,12.832,7.252,17.509S18.386,49.762,25,49.762c6.614,0,12.832-2.576,17.509-7.252
	S49.762,31.614,49.762,25C49.762,18.386,47.186,12.168,42.509,7.491z M12.652,43.028C13.688,37.065,18.855,32.667,25,32.667
	c6.145,0,11.312,4.398,12.348,10.361C33.832,45.444,29.579,46.86,25,46.86S16.168,45.444,12.652,43.028z M17.127,21.892
	c0-4.342,3.532-7.873,7.873-7.873s7.873,3.532,7.873,7.873S29.341,29.765,25,29.765S17.127,26.233,17.127,21.892z M39.861,41.016
	c-0.781-2.776-2.332-5.295-4.506-7.262c-1.334-1.207-2.852-2.16-4.484-2.831c2.95-1.924,4.904-5.253,4.904-9.031
	c0-5.941-4.834-10.775-10.775-10.775s-10.775,4.834-10.775,10.775c0,3.777,1.954,7.106,4.904,9.031
	c-1.632,0.671-3.15,1.624-4.484,2.831c-2.174,1.967-3.725,4.486-4.506,7.262C5.837,37.02,3.14,31.32,3.14,25
	C3.14,12.946,12.946,3.14,25,3.14S46.86,12.946,46.86,25C46.86,31.32,44.163,37.021,39.861,41.016z"/>
</svg>
