<?xml version="1.0" encoding="utf-8"?>
<!-- Generator: Adobe Illustrator 17.0.0, SVG Export Plug-In . SVG Version: 6.00 Build 0)  -->
<!DOCTYPE svg PUBLIC "-//W3C//DTD SVG 1.1//EN" "http://www.w3.org/Graphics/SVG/1.1/DTD/svg11.dtd">
<svg version="1.1" id="Layer_1" xmlns="http://www.w3.org/2000/svg" xmlns:xlink="http://www.w3.org/1999/xlink" x="0px" y="0px"
	 width="60.156px" height="60.156px" viewBox="0 0 60.156 60.156" enable-background="new 0 0 60.156 60.156" xml:space="preserve">
<g>
	<circle cx="30.078" cy="30.078" r="30.078"/>
	<g>
		<path fill="#FFFFFF" d="M30.5,47.072c4.094-4.434,4.026-7.269,0.045-11.188c-2.505-2.466-5.315-4.633-7.468-7.445
			c-2.24-2.925-3.027-6.166-1.507-9.647c1.459-3.341,4.271-4.892,8.002-5.627c-4.154,5.073-3.998,7.373,0.619,11.783
			c2.358,2.252,4.934,4.293,6.91,6.914c2.141,2.841,2.984,5.979,1.575,9.406C37.277,44.67,34.518,46.297,30.5,47.072z"/>
		<path fill="#FFFFFF" d="M32.034,13.146c2.025-0.568,3.629,1.3,4.877-1.59c0,2.73,0,4.536,0,7.184
			C35.611,16.153,34.973,13.891,32.034,13.146z"/>
	</g>
</g>
</svg>
