<?xml version="1.0" encoding="utf-8"?>
<!-- Generator: Adobe Illustrator 17.0.0, SVG Export Plug-In . SVG Version: 6.00 Build 0)  -->
<!DOCTYPE svg PUBLIC "-//W3C//DTD SVG 1.1//EN" "http://www.w3.org/Graphics/SVG/1.1/DTD/svg11.dtd">
<svg version="1.1" id="Layer_1" xmlns="http://www.w3.org/2000/svg" xmlns:xlink="http://www.w3.org/1999/xlink" x="0px" y="0px"
	 width="40.232px" height="40.232px" viewBox="0 0 40.232 40.232" enable-background="new 0 0 40.232 40.232" xml:space="preserve">
<g>
	<circle cx="20.116" cy="20.116" r="19.928"/>
	<g>
		<path fill="#FFFFFF" d="M20.396,31.376c2.713-2.938,2.667-4.816,0.03-7.413c-1.66-1.634-3.522-3.07-4.948-4.933
			c-1.484-1.938-2.005-4.085-0.998-6.391c0.966-2.214,2.83-3.242,5.302-3.728c-2.752,3.361-2.649,4.885,0.41,7.807
			c1.562,1.492,3.269,2.844,4.578,4.581c1.419,1.882,1.977,3.961,1.043,6.232C24.886,29.784,23.058,30.862,20.396,31.376z"/>
		<path fill="#FFFFFF" d="M21.412,8.898c1.342-0.376,2.405,0.861,3.231-1.054c0,1.809,0,3.005,0,4.76
			C23.782,10.89,23.359,9.391,21.412,8.898z"/>
	</g>
</g>
</svg>
